# xmcd
#
# Track frame offsets: 
#        180
#        17996
#        30933
#        43066
#        57004
#        67062
#        80048
#        96282
#        101756
#        113209
#        131416
#        155269
#        169866
#        192041
#        198354
#        210447
#        218800
#        230002
#        239497
#        252646
#        263831
#        286432
#        305366
#
# Disc length: 4325 seconds
#
# Revision: 0
# Processed by: cddbd v1.4PL0 Copyright (c) Steve Scherf et al.
# Submitted via: ExactAudioCopy v0.90b4
#
DISCID=4d10e317
DTITLE=Ivan Daines - He's A Cowboy
DYEAR=1995
DGENRE=Country
TTITLE0=Hooves Of History
TTITLE1=Graduation Day
TTITLE2=On Our Ranch
TTITLE3=Black Hills Of Mystery
TTITLE4=Jake And Roanie
TTITLE5=Blue Blue
TTITLE6=Benny Binion
TTITLE7=The Star Spangled Banner
TTITLE8=He's A Cowboy
TTITLE9=I Can't See The Love In Your Eyes
TTITLE10=The Strawberry Roan
TTITLE11=Rodeo Coach
TTITLE12=They All Held A Dream
TTITLE13=O Canada
TTITLE14=I Don't Wanna Be A Star
TTITLE15=Alberta You're A Lady
TTITLE16=A Cowboy Way Of Life
TTITLE17=Ride Me Down Easy
TTITLE18=Tribute To Lucky
TTITLE19=Product Of Where I'm From
TTITLE20=Casey Tibbs
TTITLE21=Tribute To Lane Frost
TTITLE22=Take Me By The Hand
EXTD=
EXTT0=
EXTT1=
EXTT2=
EXTT3=
EXTT4=
EXTT5=
EXTT6=
EXTT7=
EXTT8=
EXTT9=
EXTT10=
EXTT11=
EXTT12=
EXTT13=
EXTT14=
EXTT15=
EXTT16=
EXTT17=
EXTT18=
EXTT19=
EXTT20=
EXTT21=
EXTT22=
PLAYORDER=
